<svg width="1440" height="759" viewBox="0 0 1440 759" fill="none" xmlns="http://www.w3.org/2000/svg">
<path fill-rule="evenodd" clip-rule="evenodd" d="M-18 579.117L43 599.079C104 619.042 226 658.968 348 668.95C470 678.931 592 658.968 714 668.95C836 678.931 958 718.857 1080 738.82C1202 758.783 1324 758.783 1385 758.783H1446V219.783H1385C1324 219.783 1202 219.783 1080 219.783C958 219.783 836 219.783 714 219.783C592 219.783 470 219.783 348 219.783C226 219.783 104 219.783 43 219.783H-18V579.117Z" fill="#FBB040"/>
<path d="M1482 0V220.01H-18C65.55 187.55 190.28 147.23 357.93 110C387.44 103.45 418.27 97 450.45 90.7C574.49 66.41 718.43 44.44 882.82 28.21C955.54 21.03 1032.27 14.97 1113.05 10.33C1205.71 5.01 1303.71 1.55 1407.1 0.409996C1431.76 0.139996 1456.73 0 1482 0Z" fill="#FBB040"/>
</svg>
