<svg width="1440" height="901" viewBox="0 0 1440 901" fill="none" xmlns="http://www.w3.org/2000/svg">
<path fill-rule="evenodd" clip-rule="evenodd" d="M-41 688.078L20.7083 711.736C82.4167 735.394 205.833 782.71 329.25 794.539C452.667 806.368 576.083 782.71 699.5 794.539C822.917 806.368 946.333 853.684 1069.75 877.342C1193.17 901 1316.58 901 1378.29 901H1440V262.233H1378.29C1316.58 262.233 1193.17 262.233 1069.75 262.233C946.333 262.233 822.917 262.233 699.5 262.233C576.083 262.233 452.667 262.233 329.25 262.233C205.833 262.233 82.4167 262.233 20.7083 262.233H-41V688.078Z" fill="#F7A232"/>
<path d="M1497 211.26V263.668H-3V45.7923C121.87 23.0939 253.26 7.96961 376.73 2.39687C405.46 1.10256 433.76 0.323569 461.45 0.0838811C467.47 0.0239592 473.47 0 479.43 0C612.53 0 756.73 11.8645 897.82 33.8079C1015.54 52.0961 1131.1 77.4071 1236.22 108.698C1261.02 116.081 1285.25 123.787 1308.78 131.828C1316.08 134.309 1323.31 136.838 1330.47 139.39C1351.11 146.737 1371.17 154.347 1390.58 162.196C1428.79 177.632 1464.46 194.027 1497 211.26Z" fill="#F7A232"/>
</svg>
