<svg width="243" height="474" viewBox="0 0 243 474" fill="none" xmlns="http://www.w3.org/2000/svg">
<path d="M231.27 452.741C231.27 463.108 187.581 471.658 130.95 472.97C125.935 473.088 120.835 473.156 115.635 473.156C108.163 473.156 100.859 473.038 93.7736 472.785C40.3738 470.985 0 462.704 0 452.741C0 442.627 41.535 434.246 96.0792 432.597C102.441 432.411 108.971 432.311 115.635 432.311C121.626 432.311 127.5 432.395 133.239 432.546C188.759 434.044 231.27 442.509 231.27 452.741Z" fill="#ED9E34"/>
<path d="M90.6601 236.366C75.6146 236.366 62.8411 231.536 52.5752 221.96C34.7191 205.299 26.153 175.359 27.1459 133.033C27.3142 125.965 33.0868 120.344 40.1215 120.344C40.2224 120.344 40.3234 120.344 40.4244 120.344C47.5937 120.512 53.2652 126.453 53.1137 133.639C52.3396 167.281 58.4318 191.902 70.2966 202.976C76.5235 208.799 84.6857 211.172 95.1873 210.179C102.34 209.54 108.651 214.774 109.307 221.909C109.964 229.045 104.713 235.373 97.5603 236.029C95.221 236.248 92.9153 236.366 90.6601 236.366Z" fill="#709B3F"/>
<path d="M118.614 411.594C110.014 411.594 102.289 405.569 100.472 396.817C98.3848 386.787 104.814 376.959 114.844 374.872C124.167 372.936 205.908 352.203 205.908 224.148C205.908 213.898 214.205 205.602 224.454 205.602C234.703 205.602 243 213.915 243 224.148C243 351.967 167.2 401.866 122.4 411.207C121.155 411.459 119.876 411.594 118.614 411.594Z" fill="#709B3F"/>
<path d="M118.631 94.9465C114.339 94.9465 110.468 91.934 109.56 87.5584C108.516 82.5432 111.731 77.629 116.746 76.5856C117.823 76.35 119.287 76.1817 121.02 75.9966C127.786 75.2897 137.025 74.2968 143.202 64.3338C147.342 57.6189 145.877 45.4848 144.901 37.4572C144.582 34.7982 144.312 32.442 144.211 30.574C143.942 25.4578 147.863 21.0822 152.979 20.8129C158.146 20.7288 162.471 24.4649 162.741 29.581C162.825 31.1293 163.06 33.0479 163.33 35.2357C164.609 45.8383 166.544 61.8599 158.988 74.0949C148.032 91.7994 130.479 93.6506 122.989 94.4416C121.997 94.5426 121.172 94.6099 120.549 94.7446C119.893 94.8792 119.253 94.9465 118.631 94.9465Z" fill="#709B3F"/>
<path d="M208.18 306.425C207.557 306.425 206.918 306.358 206.278 306.223C205.655 306.088 204.831 306.038 203.838 305.92C196.349 305.129 178.779 303.261 167.84 285.573C160.267 273.338 162.202 257.317 163.498 246.714C163.767 244.526 164.003 242.608 164.087 241.06C164.356 235.943 168.799 232.14 173.848 232.291C178.964 232.561 182.885 236.936 182.616 242.053C182.515 243.937 182.246 246.277 181.926 248.936C180.95 256.963 179.486 269.097 183.643 275.812C189.802 285.775 199.058 286.751 205.824 287.475C207.557 287.66 209.021 287.845 210.098 288.064C215.114 289.108 218.328 294.022 217.285 299.037C216.342 303.429 212.488 306.425 208.18 306.425Z" fill="#709B3F"/>
<path d="M135.83 367.146C135.426 380.745 134.938 394.359 134.366 407.941C134.03 416.154 133.643 424.35 133.239 432.545C132.565 446.026 131.808 459.506 130.95 472.97C125.935 473.088 120.835 473.155 115.635 473.155C108.163 473.155 100.859 473.037 93.7736 472.785C94.6319 459.405 95.406 446.009 96.0792 432.596C99.3946 367.113 100.64 301.343 99.8153 235.624C99.7312 227.243 99.5797 218.879 99.4283 210.498C98.1156 146.832 94.8843 83.2509 89.7345 20.0564C88.893 9.84098 96.5 0.887733 106.715 0.0462617C116.914 -0.660574 125.884 6.81169 126.709 17.0271C128.257 36.0444 129.637 55.0953 130.832 74.1799C131.253 80.4741 131.623 86.7682 131.976 93.0625C137.21 184.177 138.489 275.83 135.83 367.146Z" fill="#709B3F"/>
</svg>
